<svg xmlns="http://www.w3.org/2000/svg" xmlns:xlink="http://www.w3.org/1999/xlink" width="505px" height="78px" viewBox="0 0 505 78"><title>Agility</title><g id="Page-1" stroke="none" stroke-width="1" fill="none" fill-rule="evenodd" fill-opacity="0"><g id="about" transform="translate(7.000000, -1462.000000)" fill="#FFFFFF" fill-rule="nonzero" stroke="#454747"><g id="Agility" transform="translate(-5.559694, 1463.150000)"><path d="M0,73.6 L25.5,73.6 L29.8,62 L61,62 L65.3,73.6 L90.8,73.6 L60.1,2.2 L31,2.2 L0,73.6 Z M55.4,47.2 L35.4,47.2 L45.3,20.2 L45.5,20.2 L55.4,47.2 Z" id="A"/><path d="M142.8,47.9 L157.4,47.9 C155.1,56 149,60.4 137.3,60.4 C122.7,60.4 116.1,50.4 116.1,38 C116.1,25.4 122.7,15.4 137.3,15.4 C148.5,15.4 152.8,20.2 154.3,25.7 L181.2,25.7 C178.2,5.1 156,0 136.3,0 C105.4,0 91.5,16.9 91.5,37.9 C91.5,62.5 105.2,75.8 136.4,75.8 C154.9,75.8 164.1,69.7 167.2,66.2 L170.1,73.6 L181.2,73.6 L181.2,33.1 L142.8,33.1 L142.8,47.9 Z" id="G"/><polygon id="I" points="195.5 73.6 219.3 73.6 219.3 2.2 195.5 2.2"/><polygon id="L" points="234 73.6 301.3 73.6 301.3 57 257.8 57 257.8 2.2 234 2.2"/><polygon id="I" points="310.3 73.6 334.1 73.6 334.1 2.2 310.3 2.2"/><polygon id="T" points="341.5 18.2 367.7 18.2 367.7 73.6 391.5 73.6 391.5 18.2 417.7 18.2 417.7 2.2 341.5 2.2"/><polygon id="Y" points="446.4 73.6 470.2 73.6 470.2 51.1 501.9 2.2 474.3 2.2 458.3 32.5 442.3 2.2 414.7 2.2 446.4 51.1"/></g></g></g></svg>