<svg xmlns="http://www.w3.org/2000/svg" xmlns:xlink="http://www.w3.org/1999/xlink" width="795px" height="78px" viewBox="0 0 795 78"><title>Dedication</title><g id="Page-1" stroke="none" stroke-width="1" fill="none" fill-rule="evenodd" fill-opacity="0"><g id="about" transform="translate(-3.000000, -2110.000000)" fill="#FFFFFF" fill-rule="nonzero" stroke="#454747"><g id="Dedication" transform="translate(4.440306, 2111.150000)"><path d="M0,73.6 L48.5,73.6 C69,73.6 85.6,66 85.6,37.9 C85.6,14.1 73.7,2.2 51.6,2.2 L0,2.2 L0,73.6 Z M23.8,18.2 L41.8,18.2 C54.5,18.2 61,24.5 61,37.8 C61,47.6 57.3,57.6 43.7,57.6 L23.8,57.6 L23.8,18.2 Z" id="D"/><polygon id="E" points="96.3 73.6 167.8 73.6 167.8 58.2 120.1 58.2 120.1 45.3 164.8 45.3 164.8 30.5 120.1 30.5 120.1 17.6 167.8 17.6 167.8 2.2 96.3 2.2"/><path d="M177.8,73.6 L226.3,73.6 C246.8,73.6 263.4,66 263.4,37.9 C263.4,14.1 251.5,2.2 229.4,2.2 L177.8,2.2 L177.8,73.6 Z M201.6,18.2 L219.6,18.2 C232.3,18.2 238.8,24.5 238.8,37.8 C238.8,47.6 235.1,57.6 221.5,57.6 L201.6,57.6 L201.6,18.2 Z" id="D"/><polygon id="I" points="274.4 73.6 298.2 73.6 298.2 2.2 274.4 2.2"/><path d="M372.9,46.1 C371.3,54.4 364.9,59.8 354.2,59.8 C338.8,59.8 334.4,49.7 334.4,37.9 C334.4,26.1 339.3,16 354.2,16 C367.7,16 371.2,24.6 372.6,29.7 L399.1,29.7 C393.9,5 375.9,0 354.1,0 C323.1,0 309.2,14 309.2,37.9 C309.2,62.5 323.9,75.8 354.1,75.8 C387.9,75.8 396.4,61.5 399.3,46.1 L372.9,46.1 Z" id="C"/><path d="M399.2,73.6 L424.7,73.6 L429,62 L460.2,62 L464.5,73.6 L490,73.6 L459.3,2.2 L430.2,2.2 L399.2,73.6 Z M454.6,47.2 L434.6,47.2 L444.5,20.2 L444.7,20.2 L454.6,47.2 Z" id="A"/><polygon id="T" points="487.1 18.2 513.3 18.2 513.3 73.6 537.1 73.6 537.1 18.2 563.3 18.2 563.3 2.2 487.1 2.2"/><polygon id="I" points="570.7 73.6 594.5 73.6 594.5 2.2 570.7 2.2"/><path d="M605.5,37.9 C605.5,67.5 626.8,75.8 652,75.8 C677.2,75.8 698.5,67.5 698.5,37.9 C698.5,8.3 677.2,0 652,0 C626.8,0 605.5,8.3 605.5,37.9 Z M630.7,37.9 C630.7,23 639.3,16 652,16 C664.8,16 673.3,23 673.3,37.9 C673.3,52.9 664.8,59.8 652,59.8 C639.3,59.8 630.7,52.9 630.7,37.9 Z" id="O"/><polygon id="N" points="709.2 73.6 732.2 73.6 732.2 28.5 732.4 28.5 766.6 73.6 792.9 73.6 792.9 2.2 769.9 2.2 769.9 46.9 769.7 46.9 736.6 2.2 709.2 2.2"/></g></g></g></svg>