<svg xmlns="http://www.w3.org/2000/svg" xmlns:xlink="http://www.w3.org/1999/xlink" width="833px" height="78px" viewBox="0 0 833 78"><title>Knowledge</title><g id="Page-1" stroke="none" stroke-width="1" fill="none" fill-rule="evenodd" fill-opacity="0"><g id="about" transform="translate(-3.000000, -1830.000000)" fill="#FFFFFF" fill-rule="nonzero" stroke="#454747"><g id="Knowledge" transform="translate(4.440306, 1830.900000)"><polygon id="K" points="0 73.6 23.8 73.6 23.8 53.5 33.9 45.1 56 73.6 87.8 73.6 53 30.3 85.3 2.2 53.6 2.2 23.8 30.2 23.8 2.2 0 2.2"/><polygon id="N" points="92.6 73.6 115.6 73.6 115.6 28.5 115.8 28.5 150 73.6 176.3 73.6 176.3 2.2 153.3 2.2 153.3 46.9 153.1 46.9 120 2.2 92.6 2.2"/><path d="M187,37.9 C187,67.5 208.3,75.8 233.5,75.8 C258.7,75.8 280,67.5 280,37.9 C280,8.3 258.7,0 233.5,0 C208.3,0 187,8.3 187,37.9 Z M212.2,37.9 C212.2,23 220.8,16 233.5,16 C246.3,16 254.8,23 254.8,37.9 C254.8,52.9 246.3,59.8 233.5,59.8 C220.8,59.8 212.2,52.9 212.2,37.9 Z" id="O"/><polygon id="W" points="304.9 73.6 328.4 73.6 340.8 27.1 341 27.1 353.4 73.6 376.9 73.6 398.3 2.2 375.3 2.2 364.1 50.4 363.9 50.4 351 2.2 330.8 2.2 317.9 50.4 317.7 50.4 306.5 2.2 283.5 2.2"/><polygon id="L" points="405.5 73.6 472.8 73.6 472.8 57 429.3 57 429.3 2.2 405.5 2.2"/><polygon id="E" points="481.5 73.6 553 73.6 553 58.2 505.3 58.2 505.3 45.3 550 45.3 550 30.5 505.3 30.5 505.3 17.6 553 17.6 553 2.2 481.5 2.2"/><path d="M563,73.6 L611.5,73.6 C632,73.6 648.6,66 648.6,37.9 C648.6,14.1 636.7,2.2 614.6,2.2 L563,2.2 L563,73.6 Z M586.8,18.2 L604.8,18.2 C617.5,18.2 624,24.5 624,37.8 C624,47.6 620.3,57.6 606.7,57.6 L586.8,57.6 L586.8,18.2 Z" id="D"/><path d="M706.9,47.9 L721.5,47.9 C719.2,56 713.1,60.4 701.4,60.4 C686.8,60.4 680.2,50.4 680.2,38 C680.2,25.4 686.8,15.4 701.4,15.4 C712.6,15.4 716.9,20.2 718.4,25.7 L745.3,25.7 C742.3,5.1 720.1,0 700.4,0 C669.5,0 655.6,16.9 655.6,37.9 C655.6,62.5 669.3,75.8 700.5,75.8 C719,75.8 728.2,69.7 731.3,66.2 L734.2,73.6 L745.3,73.6 L745.3,33.1 L706.9,33.1 L706.9,47.9 Z" id="G"/><polygon id="E" points="759.3 73.6 830.8 73.6 830.8 58.2 783.1 58.2 783.1 45.3 827.8 45.3 827.8 30.5 783.1 30.5 783.1 17.6 830.8 17.6 830.8 2.2 759.3 2.2"/></g></g></g></svg>